<svg xmlns="http://www.w3.org/2000/svg" xmlns:xlink="http://www.w3.org/1999/xlink" viewBox="0 0 50 50">
	<style> g:not(:target) { display: none; } </style>
	<g id="arrow">
		<path d="M25,0C11.21,0,0,11.21,0,25s11.21,25,25,25s25-11.21,25-25S38.79,0,25,0z M32.72,26.47L22.31,36.89
		c-0.41,0.41-0.94,0.61-1.47,0.61c-0.53,0-1.07-0.2-1.47-0.61c-0.81-0.81-0.81-2.13,0-2.95L28.3,25l-8.94-8.94
		c-0.81-0.81-0.81-2.13,0-2.95c0.81-0.81,2.13-0.81,2.95,0l10.42,10.42C33.54,24.34,33.54,25.66,32.72,26.47z"/>
	</g>
	<g id="back">
		<path d="M35.15,16.08H6.54l7.39-8.46c0.74-0.85,0.66-2.14-0.19-2.88c-0.85-0.74-2.14-0.65-2.88,0.19L0.5,16.78
		c0,0.01-0.01,0.01-0.01,0.02c-0.03,0.03-0.05,0.06-0.07,0.09c-0.02,0.02-0.03,0.04-0.05,0.06c-0.02,0.03-0.04,0.06-0.06,0.09
		c-0.02,0.02-0.03,0.05-0.04,0.07c-0.02,0.03-0.03,0.06-0.05,0.09c-0.01,0.03-0.03,0.05-0.04,0.08c-0.01,0.03-0.03,0.06-0.04,0.09
		c-0.01,0.03-0.02,0.06-0.03,0.08c-0.01,0.03-0.02,0.06-0.03,0.09c-0.01,0.03-0.02,0.06-0.02,0.09c-0.01,0.03-0.01,0.06-0.02,0.09
		c-0.01,0.04-0.01,0.07-0.02,0.11c0,0.03-0.01,0.05-0.01,0.08C0,17.99,0,18.05,0,18.12c0,0,0,0,0,0c0,0,0,0,0,0
		c0,0.06,0,0.13,0.01,0.19c0,0.02,0.01,0.05,0.01,0.07c0.01,0.04,0.01,0.08,0.02,0.12c0.01,0.03,0.01,0.06,0.02,0.09
		c0.01,0.03,0.02,0.07,0.03,0.1c0.01,0.03,0.02,0.06,0.03,0.09c0.01,0.03,0.02,0.06,0.03,0.09c0.01,0.03,0.02,0.06,0.04,0.08
		c0.01,0.03,0.03,0.06,0.04,0.09c0.01,0.03,0.03,0.05,0.04,0.08c0.02,0.03,0.03,0.06,0.05,0.09c0.02,0.03,0.03,0.05,0.05,0.08
		c0.02,0.03,0.04,0.05,0.06,0.08c0.02,0.03,0.04,0.05,0.06,0.08c0.01,0.01,0.01,0.01,0.02,0.02l10.35,11.85
		c0.4,0.46,0.97,0.7,1.54,0.7c0.48,0,0.96-0.17,1.34-0.5c0.85-0.74,0.94-2.03,0.19-2.88l-7.39-8.46h28.61
		c5.94,0,10.76,4.83,10.76,10.76s-4.83,10.76-10.76,10.76H4.77c-1.13,0-2.04,0.91-2.04,2.04c0,1.13,0.91,2.04,2.04,2.04h30.38
		c8.19,0,14.85-6.66,14.85-14.85S43.34,16.08,35.15,16.08z"/>
	</g>
	<g id="basket">
		<path d="M42.21,9.24c-0.96-3.6-4.24-6.11-7.96-6.11h-4.92c0.57-0.26,0.96-0.83,0.96-1.49c0-0.91-0.73-1.64-1.64-1.64h-7.29
		c-0.91,0-1.64,0.73-1.64,1.64c0,0.66,0.39,1.23,0.96,1.49h-4.92c-3.72,0-7,2.51-7.96,6.11C7.51,10.28,8.3,11.3,9.37,11.3h31.25
		C41.7,11.3,42.49,10.28,42.21,9.24z M12.09,8.02c0.92-1,2.23-1.61,3.66-1.61h18.5c1.42,0,2.74,0.61,3.66,1.61H12.09z M40.63,14.58
		H9.37c-0.96,0-1.72,0.82-1.63,1.78l2.73,32.14c0.07,0.85,0.78,1.5,1.63,1.5h25.78c0.85,0,1.56-0.65,1.63-1.5l2.73-32.14
		C42.34,15.41,41.59,14.58,40.63,14.58z M36.39,46.72H13.61l-2.45-28.86h27.68L36.39,46.72z M25,19.83c-0.91,0-1.64,0.73-1.64,1.64
		v21.54c0,0.91,0.73,1.64,1.64,1.64s1.64-0.73,1.64-1.64V21.47C26.64,20.56,25.91,19.83,25,19.83z M19.74,42.86l-1.97-21.54
		c-0.08-0.9-0.88-1.57-1.78-1.48c-0.9,0.08-1.57,0.88-1.48,1.78l1.97,21.54c0.08,0.91,0.89,1.57,1.78,1.48
		C19.16,44.56,19.83,43.76,19.74,42.86z M34.01,19.83c-0.9-0.08-1.7,0.58-1.78,1.48l-1.97,21.54c-0.08,0.9,0.58,1.7,1.48,1.78
		c0.9,0.08,1.7-0.58,1.78-1.48l1.97-21.54C35.57,20.71,34.91,19.92,34.01,19.83z"/>
	</g>
	<g id="edit">
		<path d="M45.31,12.95l-3.31,3.31l-8.27-8.28l3.31-3.31c0.67-0.67,1.85-0.67,2.52,0l5.75,5.76C46.01,11.12,46.01,12.26,45.31,12.95z
		M17.69,40.61l-8.27-8.28l21.37-21.4l8.27,8.28L17.69,40.61L17.69,40.61z M7.52,36.32l6.18,6.19l-8.61,2.43L7.52,36.32L7.52,36.32z
		M48.26,7.48l-5.75-5.76c-1.12-1.12-5.17-3.25-8.41,0L5,30.86c-0.26,0.26-0.44,0.56-0.53,0.91L0.08,47.39
		c-0.2,0.72,0.01,1.5,0.53,2.04c0.53,0.54,1.59,0.63,2.04,0.53l15.61-4.4c0.35-0.09,0.65-0.28,0.91-0.53L48.26,15.9
		C50.58,13.58,50.58,9.81,48.26,7.48L48.26,7.48z"/>
	</g>
	<g id="fb">
		<path d="M32.94,8.3h4.56V0.35C36.71,0.24,34.01,0,30.85,0c-6.58,0-11.09,4.14-11.09,11.75v7H12.5v8.89h7.26V50h8.9V27.64h6.97 l1.11-8.89h-8.08v-6.12C28.67,10.06,29.36,8.3,32.94,8.3L32.94,8.3z"/>
	</g>
	<g id="search">
		<path d="M49.3,45.91L37.65,34.26c2.97-3.73,4.6-8.38,4.6-13.13C42.25,9.48,32.77,0,21.12,0C9.47,0,0,9.47,0,21.12
		c0,11.64,9.47,21.12,21.12,21.12c4.77,0,9.41-1.63,13.13-4.6L45.9,49.29c0.45,0.45,1.06,0.7,1.69,0.7c0.64,0,1.26-0.26,1.68-0.7
		c0.46-0.44,0.72-1.04,0.73-1.68C50,46.97,49.76,46.37,49.3,45.91z M37.46,21.12c0,9.01-7.33,16.33-16.33,16.33
		c-9.01,0-16.33-7.33-16.33-16.33S12.12,4.78,21.13,4.78C30.13,4.78,37.46,12.11,37.46,21.12z"/>
	</g>
	<g id="like">
		<path d="M46.35,7.25c-2.47-2.8-5.89-4.34-9.63-4.34c-5.27,0-8.6,3.15-10.47,5.79c-0.49,0.68-0.9,1.37-1.24,2.02
		c-0.35-0.65-0.76-1.33-1.24-2.02c-1.87-2.64-5.21-5.79-10.47-5.79c-3.75,0-7.17,1.54-9.63,4.34C1.3,9.92,0,13.5,0,17.32
		c0,4.16,1.62,8.03,5.11,12.18c3.12,3.71,7.6,7.53,12.79,11.95c1.93,1.65,3.94,3.35,6.07,5.22l0.06,0.06
		c0.28,0.24,0.62,0.36,0.96,0.36c0.34,0,0.69-0.12,0.96-0.36l0.06-0.06c2.13-1.86,4.13-3.57,6.07-5.22
		c5.19-4.42,9.68-8.25,12.79-11.95C48.38,25.35,50,21.48,50,17.32C50,13.5,48.7,9.92,46.35,7.25z M30.19,39.22
		c-1.67,1.42-3.38,2.88-5.19,4.46c-1.81-1.57-3.53-3.04-5.19-4.46C9.64,30.56,2.93,24.84,2.93,17.32c0-3.11,1.04-6,2.92-8.13
		c1.9-2.16,4.54-3.35,7.44-3.35c4.02,0,6.61,2.47,8.08,4.55c1.32,1.86,2.01,3.74,2.24,4.46c0.2,0.6,0.76,1.01,1.39,1.01
		s1.2-0.41,1.39-1.01c0.23-0.72,0.92-2.6,2.24-4.46c1.47-2.08,4.07-4.55,8.08-4.55c2.89,0,5.53,1.19,7.44,3.35
		c1.88,2.13,2.92,5.02,2.92,8.13C47.07,24.84,40.36,30.56,30.19,39.22z"/>
	</g>
	<g id="image">
		<path d="M42.52,39.96l-1.1,4.46c-0.56,2.11-2.46,3.5-4.53,3.5c-0.39,0-0.8-0.05-1.19-0.15L3.47,39.14
		c-2.49-0.69-3.97-3.26-3.32-5.74l3.54-13.58c0.22-0.83,1.07-1.34,1.91-1.12c0.83,0.22,1.34,1.07,1.12,1.91L3.18,34.19
		c-0.22,0.84,0.28,1.7,1.11,1.93l32.2,8.62c0.83,0.22,1.68-0.27,1.9-1.1l1.1-4.44c0.21-0.84,1.05-1.35,1.89-1.14
		C42.21,38.28,42.72,39.12,42.52,39.96z M50,6.77v23.96c0,2.59-2.1,4.69-4.69,4.69H13.02c-1.83,0-3.41-1.05-4.19-2.58c0,0,0,0,0,0
		c-0.37-0.37-0.51-0.87-0.44-1.34c-0.04-0.25-0.06-0.5-0.06-0.76V6.77c0-2.59,2.1-4.69,4.69-4.69h32.29C47.9,2.08,50,4.19,50,6.77z
		 M11.46,6.77V28l6.79-6.79c1.43-1.43,3.74-1.43,5.17,0l2.52,2.52l7.74-9.29c0.69-0.83,1.71-1.31,2.78-1.31
		c1.16-0.06,2.1,0.46,2.79,1.28l7.63,8.9V6.77c0-0.86-0.7-1.56-1.56-1.56H13.02C12.16,5.21,11.46,5.91,11.46,6.77z M46.87,30.73V28.1
		l-10-11.67c-0.14-0.16-0.31-0.16-0.4-0.19c-0.09,0-0.26,0.03-0.4,0.19l-8.83,10.6c-0.28,0.34-0.69,0.54-1.13,0.56
		c-0.45,0.02-0.87-0.15-1.18-0.46l-3.73-3.73c-0.26-0.26-0.48-0.26-0.75,0l-8.48,8.48c0.28,0.25,0.64,0.4,1.04,0.4h32.29
		C46.17,32.29,46.87,31.59,46.87,30.73z M14.58,12.5c0-2.3,1.87-4.17,4.17-4.17c2.3,0,4.17,1.87,4.17,4.17c0,2.3-1.87,4.17-4.17,4.17
		C16.45,16.67,14.58,14.8,14.58,12.5z M17.71,12.5c0,0.57,0.47,1.04,1.04,1.04c0.57,0,1.04-0.47,1.04-1.04s-0.47-1.04-1.04-1.04
		C18.17,11.46,17.71,11.92,17.71,12.5z"/>
	</g>
	<g id="okru">
		<path d="M22.54,35.22c-3.88-0.4-7.37-1.36-10.36-3.7c-0.37-0.29-0.75-0.57-1.09-0.9c-1.31-1.26-1.44-2.7-0.41-4.18
		c0.89-1.27,2.37-1.61,3.92-0.88c0.3,0.14,0.58,0.32,0.86,0.51c5.58,3.83,13.24,3.94,18.83,0.17c0.55-0.43,1.15-0.77,1.83-0.95
		c1.34-0.34,2.58,0.15,3.3,1.32c0.82,1.33,0.81,2.64-0.2,3.67c-1.55,1.59-3.41,2.74-5.48,3.54c-1.96,0.76-4.1,1.14-6.22,1.39
		c0.32,0.35,0.47,0.52,0.67,0.72c2.88,2.89,5.77,5.77,8.64,8.67c0.98,0.99,1.18,2.21,0.64,3.36c-0.59,1.26-1.91,2.08-3.2,2
		c-0.82-0.06-1.46-0.46-2.02-1.04c-2.17-2.19-4.39-4.33-6.51-6.56c-0.62-0.65-0.92-0.53-1.46,0.04c-2.19,2.25-4.41,4.47-6.64,6.67
		c-1,0.99-2.2,1.17-3.36,0.6c-1.24-0.6-2.02-1.86-1.96-3.13c0.04-0.86,0.46-1.51,1.05-2.1c2.85-2.85,5.69-5.7,8.53-8.55
		C22.09,35.71,22.26,35.51,22.54,35.22z M24.9,25.31c-6.91-0.02-12.59-5.76-12.54-12.68c0.04-7,5.71-12.65,12.7-12.63
		c7,0.02,12.61,5.74,12.58,12.82C37.59,19.73,31.89,25.33,24.9,25.31z M31.18,12.64C31.17,9.2,28.43,6.47,25,6.46
		c-3.46,0-6.22,2.78-6.2,6.25c0.03,3.43,2.79,6.14,6.23,6.13C28.46,18.84,31.2,16.08,31.18,12.64z"/>
	</g>
	<g id="site">
		<path d="M25.05,0C15.81,0,7.74,5.04,3.4,12.5l-0.23,0.42C1.18,16.5,0.05,20.62,0.05,25s1.13,8.5,3.13,12.08L3.4,37.5
		C7.73,44.96,15.81,50,25.05,50c13.09,0,23.84-10.1,24.91-22.92v-4.17C48.89,10.1,38.13,0,25.05,0z M16.83,5.86
		c-1.09,1.86-2.01,4.1-2.71,6.64h-5.7C10.59,9.62,13.47,7.3,16.83,5.86z M5.96,33.33C4.84,30.78,4.21,27.97,4.21,25
		s0.63-5.78,1.76-8.33h7.24c-0.43,2.59-0.66,5.38-0.66,8.33s0.23,5.74,0.66,8.33H5.96z M8.42,37.5h5.7c0.7,2.54,1.61,4.78,2.71,6.64
		C13.47,42.7,10.59,40.38,8.42,37.5z M25.05,45.83c-2.36,0-4.87-3.22-6.51-8.33h13.02C29.92,42.62,27.4,45.83,25.05,45.83z
		 M17.47,33.33c-0.48-2.53-0.76-5.34-0.76-8.33s0.27-5.81,0.76-8.33h9.66V12.5h-8.59c1.64-5.12,4.17-8.33,6.51-8.33
		c3.7,0,7.81,7.89,8.28,18.75H20.88v4.17h12.45c-0.09,2.23-0.34,4.32-0.72,6.25H17.47z M33.26,44.14c2.41-4.11,3.98-10.09,4.24-17.06
		h8.27C45.01,34.75,40.07,41.21,33.26,44.14z M37.51,22.92c-0.26-6.95-1.82-12.94-4.24-17.06c6.81,2.93,11.74,9.39,12.51,17.06H37.51
		z"/>
	</g>
	<g id="vk">
		<path d="M49.73,36.5c-0.06-0.13-0.12-0.24-0.17-0.33c-0.87-1.56-2.53-3.48-4.97-5.75l-0.05-0.05l-0.03-0.03l-0.03-0.03h-0.03
		c-1.11-1.06-1.81-1.77-2.11-2.14c-0.54-0.69-0.66-1.4-0.37-2.11c0.21-0.54,0.99-1.67,2.34-3.41c0.71-0.92,1.28-1.66,1.69-2.21
		c3-3.99,4.3-6.54,3.91-7.65l-0.16-0.26c-0.1-0.16-0.37-0.3-0.81-0.43c-0.43-0.13-0.99-0.15-1.67-0.06l-7.5,0.05
		c-0.12-0.04-0.29-0.04-0.52,0.01c-0.23,0.05-0.34,0.08-0.34,0.08l-0.13,0.07l-0.1,0.08c-0.09,0.05-0.18,0.14-0.29,0.27
		c-0.1,0.13-0.19,0.28-0.26,0.46c-0.82,2.1-1.74,4.05-2.79,5.86c-0.64,1.08-1.23,2.01-1.77,2.8c-0.54,0.79-0.99,1.37-1.35,1.74
		c-0.36,0.37-0.69,0.67-0.99,0.9c-0.3,0.23-0.52,0.32-0.68,0.29c-0.16-0.03-0.3-0.07-0.44-0.1c-0.24-0.16-0.44-0.37-0.59-0.64
		c-0.15-0.27-0.25-0.61-0.3-1.02c-0.05-0.41-0.08-0.76-0.09-1.05c-0.01-0.29,0-0.71,0.01-1.25c0.02-0.54,0.03-0.9,0.03-1.09
		c0-0.66,0.01-1.38,0.04-2.15c0.03-0.77,0.05-1.38,0.07-1.84c0.02-0.45,0.03-0.93,0.03-1.43c0-0.5-0.03-0.9-0.09-1.18
		c-0.06-0.29-0.15-0.56-0.27-0.83c-0.12-0.27-0.3-0.48-0.53-0.62c-0.23-0.15-0.53-0.26-0.87-0.35c-0.92-0.21-2.09-0.32-3.51-0.34
		c-3.23-0.03-5.3,0.17-6.22,0.63c-0.36,0.19-0.69,0.45-0.99,0.78c-0.31,0.38-0.36,0.59-0.13,0.62c1.04,0.16,1.78,0.53,2.21,1.12
		l0.16,0.31c0.12,0.23,0.24,0.62,0.36,1.2c0.12,0.57,0.2,1.21,0.23,1.9c0.09,1.27,0.09,2.35,0,3.25c-0.09,0.9-0.17,1.61-0.25,2.11
		c-0.08,0.5-0.2,0.91-0.35,1.22c-0.16,0.31-0.26,0.5-0.31,0.57c-0.05,0.07-0.1,0.11-0.13,0.13c-0.23,0.09-0.46,0.13-0.7,0.13
		c-0.24,0-0.54-0.12-0.89-0.36c-0.35-0.24-0.71-0.58-1.08-1c-0.37-0.43-0.79-1.02-1.26-1.78c-0.47-0.76-0.95-1.67-1.46-2.71
		l-0.42-0.76c-0.26-0.49-0.62-1.19-1.07-2.12c-0.45-0.93-0.85-1.83-1.2-2.69c-0.14-0.36-0.35-0.64-0.62-0.83l-0.13-0.08
		c-0.09-0.07-0.23-0.14-0.42-0.22c-0.19-0.08-0.39-0.13-0.6-0.17l-7.13,0.05c-0.73,0-1.22,0.17-1.48,0.49l-0.1,0.16
		C0.03,12.78,0,12.92,0,13.11c0,0.19,0.05,0.43,0.16,0.7c1.04,2.45,2.17,4.81,3.4,7.08c1.22,2.27,2.29,4.1,3.19,5.49
		c0.9,1.39,1.82,2.7,2.76,3.93c0.94,1.23,1.56,2.02,1.86,2.37c0.3,0.35,0.54,0.61,0.72,0.78l0.65,0.62c0.42,0.42,1.03,0.92,1.84,1.5
		c0.81,0.58,1.7,1.15,2.68,1.72c0.98,0.56,2.12,1.02,3.42,1.38c1.3,0.36,2.57,0.5,3.8,0.43h2.99c0.61-0.05,1.07-0.24,1.38-0.57
		l0.1-0.13c0.07-0.1,0.13-0.26,0.2-0.48c0.06-0.22,0.09-0.46,0.09-0.72c-0.02-0.75,0.04-1.42,0.17-2.02
		c0.13-0.6,0.28-1.05,0.44-1.35c0.17-0.3,0.35-0.56,0.56-0.77c0.21-0.21,0.36-0.33,0.44-0.38c0.09-0.04,0.16-0.07,0.21-0.09
		c0.42-0.14,0.91,0,1.47,0.4c0.56,0.41,1.09,0.91,1.59,1.51c0.49,0.6,1.09,1.27,1.78,2.02c0.69,0.75,1.3,1.3,1.82,1.67l0.52,0.31
		c0.35,0.21,0.8,0.4,1.35,0.57c0.55,0.17,1.04,0.22,1.46,0.13l6.66-0.1c0.66,0,1.17-0.11,1.54-0.33c0.36-0.22,0.58-0.46,0.65-0.72
		c0.07-0.26,0.07-0.56,0.01-0.89C49.86,36.86,49.8,36.63,49.73,36.5z"/>
	</g>
	<g id="video">
		<path d="M34.57,18.03v-4.46c0-3.23-2.63-5.86-5.86-5.86H5.86C2.63,7.71,0,10.34,0,13.57v22.85c0,3.23,2.63,5.86,5.86,5.86h22.85
		c3.23,0,5.86-2.63,5.86-5.86v-4.36L50,39.78V10.32L34.57,18.03z M30.66,36.43c0,1.08-0.88,1.95-1.95,1.95H5.86
		c-1.08,0-1.95-0.88-1.95-1.95V13.57c0-1.08,0.88-1.95,1.95-1.95h22.85c1.08,0,1.95,0.88,1.95,1.95V36.43z M46.09,33.46L34.57,27.7
		v-5.3l11.52-5.76V33.46z"/>
	</g>

</svg>