<?xml version="1.0" encoding="utf-8"?>
<!-- Generator: Adobe Illustrator 24.1.2, SVG Export Plug-In . SVG Version: 6.00 Build 0)  -->
<svg version="1.1" xmlns="http://www.w3.org/2000/svg" xmlns:xlink="http://www.w3.org/1999/xlink" x="0px" y="0px"
	 viewBox="0 0 750 500" style="enable-background:new 0 0 750 500;" xml:space="preserve">
<style type="text/css">
	.st0{clip-path:url(#SVGID_2_);}
	.st1{opacity:0.8;fill:#C0E1E9;}
	.st2{fill:#91CCE9;}
	.st3{fill:#3D92B8;}
	.st4{fill:#11819D;}
	.st5{fill:#104164;}
	.st6{opacity:0.3;clip-path:url(#SVGID_2_);}
	.st7{opacity:0.3;}
	.st8{clip-path:url(#SVGID_4_);fill:#91CCE9;}
	.st9{fill:#BCDCE8;}
	.st10{fill:#162A3F;}
</style>
<g id="OBJECTS">
	<g id="New_Symbol_2">
	</g>
	<g>
		<defs>
			<rect id="SVGID_1_" width="750" height="500"/>
		</defs>
		<clipPath id="SVGID_2_">
			<use xlink:href="#SVGID_1_"  style="overflow:visible;"/>
		</clipPath>
		<g class="st0">
			<path class="st1" d="M-16.08,420.95c-2.32,22.45,23.24,3.52,15.83,24.9c-11.45,33.03,7.54,60.56,0.97,86.97
				c3.9,0.66,7.81,1.28,11.72,1.84c34.26,4.27,68.86,5.2,103.36,4.4c61.4-1.41,122.52-7.9,183.88-10.3
				c31.59-1.24,63.2-0.77,94.8-1.83c33.11-1.11,66.19-3.01,99.26-4.99c33.08-1.98,66.15-4.04,99.26-5.4
				c30.66-1.26,61.12-2.64,91.67-5.67c23.62-2.34,47.36-5.07,71.15-7.08c1.78-17.42,3.67-34.83,4.57-52.32
				c1.76-34.41,1.65-68.99,3.27-103.42c-1.87-18.24-4.73-36.36-9.1-54.07c-2.78-11.29-6.36-29.29-14.28-38.75
				c-5.15-6.16-5.51-4.91-11.6-6.66c-5.65-1.62-14.82-4.3-21.57-6.28c-18.48-5.41-48.2,5.52-62.46-14.01
				c-23.15,7.46-45.23,7.1-69.53,1.14c-8.97-2.2-14.63-0.62-23.89-1.2c-8.36-0.52-29.84,1.67-33.82-2.25
				c-5.95,4.1-15.5-0.35-21.25-1.26c-9.78-1.55-13.63-3.63-22.89-9.9c-0.87,0.15-1.42,1.21-2.25,1.59
				c-3.33-3.85-8.43-5.11-10.98-0.36c-5.69,0.21-10.42-3.42-15.35-5.75c-13.55,18.67-19.58,25.63-41.97,14.19
				c-6.41,6.91-20.54,22.44-29.88,12.57c-7.51,9.83-9.62,18.96-26.48,18.75c-9.05-0.11-17.11-7.37-27.15-7.23
				c-16.12,0.23-29.02,9.85-39.78,20.98c-12.11,12.52-18.39,2.17-34.72,1.48c-3.52-0.15-6.2,3.1-9.47,2.53
				c-4.22-0.73-7.35-5.62-10.94-7.35c-1.82-0.88-2.26-3.77-4.52-4.54c-3.72-1.28-7.01,2.45-10.05,1.56
				c-10.64-3.1-19.35-15.26-30.77-19.7c-10.06-3.91-19.13-7.68-28.8-12.61c-7.27-3.71-6.04-3.92-14.37-5.08
				c-4.92-0.69-10.62,0.04-15.31-0.94c-1.9-0.4-7.35-3.1-10.12-3.63c-2.6-0.49-3.47,3.34-5.7,2.22c-4.35-2.16-7.21-8.18-11.94-9.71
				c-9.55-3.1-25.54,10.44-33.76,15.86c-14.84,9.76-43.23,17.43-54.64,31.07C-5.57,272.54,1.11,304,0.3,317.1
				c-1.07,17.29-5.54,34.23-7.95,51.41c-1.71,12.18-1.46,25.41-6.2,36.91l7.18-7.18C2.4,399.12-22.67,426.97-16.08,420.95z"/>
			<path class="st2" d="M-17.51,529.36c9.92,2.1,19.91,3.86,29.95,5.31c34.26,4.27,68.86,5.2,103.36,4.4
				c61.4-1.41,122.52-7.9,183.88-10.3c31.59-1.24,63.2-0.77,94.8-1.83c33.11-1.11,66.19-3.01,99.26-4.99
				c33.08-1.98,66.15-4.04,99.26-5.4c30.66-1.26,61.12-2.64,91.67-5.67c23.62-2.34,47.36-5.07,71.15-7.08
				c1.78-17.42,3.67-34.83,4.57-52.32c2.47-48.12,1.25-96.56,6.28-144.45c-3.66,0.96-7.29,1.78-10.55,1.59
				c-3.73-0.21-4.55-5.94-7.77-6.39c-5.17-0.72-11.2,0.26-16.11-0.6c-9.9-1.74-10.37-6.25-18.89-9.41c-5.36-1.98-8.91,0.76-14.23,0
				c-10.03-1.44-20.53-3.64-30.25-4.86c-7.05-12.09-22.78-10.07-32.66-19.35c-4.93,2.04-6.83,6.07-11.38,8.24
				c-9.75,4.64-21.14,6.21-31.18,9.72c0.22-0.55,0.33-1.12,0.31-1.72c-5.32-5.62-17.33,4.26-25.37,6.76
				c-18.59,5.78-32.88,3.49-49.75-1.19c-22.24-6.17-42.95,2.45-65.06-0.72c-20.54-2.95-44.96,1-64.58-0.01
				c-15.52-0.8-26.07,1.72-42.69-0.73c-20.96-3.09-35.95,10.31-55.38,19.2c-29.81,13.64-50.75-25.39-76.84-35.67
				c-8.87-3.49-18.02,0.09-28.21-2.55c-7.54-1.95-15.21-6.83-22.46-9.59c-16.73-6.36-21.46-8.43-37.52-5.88
				c-29.06,4.6-58.09,22.02-86.88,32.81C24.2,292.3,8.89,295.43-6.04,303.1c-2.62,1.34-4.96,2.98-7.14,4.79
				c0.26,0.65,0.51,1.3,0.75,1.96c4.91,13.44,4.76,28.93,3.32,42.99c-1.72,16.8-4.86,33.38-8.47,49.86
				c-0.88,4.02-1.79,8.03-2.69,12.05c0.11,12.24,0.34,24.48,0.64,36.72C-19,477.41-18.1,503.39-17.51,529.36z"/>
			<path class="st3" d="M-17.5,529.36c9.92,2.1,19.9,3.86,29.95,5.3c34.26,4.27,68.86,5.2,103.36,4.4
				c61.4-1.41,122.52-7.9,183.88-10.3c31.59-1.24,63.2-0.77,94.8-1.83c33.11-1.11,66.19-3.01,99.26-4.99
				c33.08-1.98,66.15-4.04,99.26-5.4c30.66-1.26,61.12-2.64,91.67-5.67c23.62-2.34,47.36-5.07,71.15-7.08
				c1.78-17.42,3.67-34.83,4.57-52.32c2.68-52.27,1.01-104.93,7.74-156.84c-7.49,0.91-15.93,5.11-21.95,6.26
				c-11.5,2.19-21.17,0.24-32.14,0.37c-17.96,0.21-38.19,7.01-55.96,10.29c-11.98,2.21-11.84,7.95-20.91,12.87
				c-11.48,6.22-30.17,0.29-43.35,1.77c-17.71,1.98-33.61,8.12-52.88,6.02c-16.83-1.83-34.96-7.74-50.39-10.69
				c-13.01-2.49-19.13-3.99-32.84-2.62c-8.4,0.84-8.56,1.9-15.55,4.42c-13.63,4.93-30.47,8.03-42.96,13.21
				c-12.9,5.34-21.23,14.34-36.69,17.35c-13.27,2.59-16.83-2.99-29.24-4.5c-7.12-0.87-16.54,3.26-24.36,4.95
				c-4.94,1.07-15.28,3.61-20.13,2.9c-7.2-1.05-12.28-9.5-19.01-10.4c-6.79-0.9-12.62,4.27-19.16,4.48
				c-8.46,0.27-15.57-4.61-23.54-5.96c-6.95-1.17-13.83,0.39-20.63-1.44c-7.54-2.02-14.13-9.12-20.88-11.44
				c-6.28-2.15-10.36,0.53-17.33-0.33c-8.06-1-9.15-4.48-16.18-7.06c-12.66-4.63-24.23-6.69-36.81-12.44
				c-6.97-3.19-13.63-8.83-21.7-8.2c-6.23,0.49-9.76,5.38-19.21,4.55c-16.18-1.41-29.1,1.42-47.3-0.4
				c-12.28-1.23-17.41-9.32-27.7-13.02c-3.69-1.33-8.97-1.78-14.54-1.59c-0.28,2.55-0.55,5.1-0.81,7.65
				c1.38,2.61,2.57,5.34,3.61,8.18c4.91,13.44,4.76,28.93,3.32,42.99c-1.72,16.8-4.86,33.38-8.47,49.86
				c-0.88,4.02-1.79,8.03-2.69,12.05c0.11,12.24,0.34,24.48,0.64,36.72C-19,477.41-18.1,503.39-17.5,529.36z"/>
			<path class="st4" d="M291.5,378.72c-14.07-11.91-13.95-7.71-29.08-8.25c-7.98-0.28-15.5-4.04-22.17-4.44
				c-9.28-0.56-10.83,2.31-19.53-2.98c-11.1-6.74-13.83-19.8-23.25-27.94c-7.32-6.33-17.24-12.17-25.27-18.62
				c-10.37,4.04-31.93,25.04-39.32,11.81c-7.68,4.63-16.49,3.75-17.95,13.98c-6.36-3.26-10.7-11.23-17.43-14.58
				c-3.41-1.7-6.75-0.21-9.96-1.35c-9.05-3.21-16.28-8.46-25.07-12.24c-18.09-7.79-37.01-5.81-56.65-8.52
				c-7.78-1.07-14.5-4.63-21.49-7.41c-0.12,1.16-0.25,2.32-0.37,3.48c1.38,2.61,2.57,5.34,3.61,8.18
				c4.91,13.44,4.76,28.93,3.32,42.99c-1.72,16.8-4.86,33.38-8.47,49.86c-0.88,4.02-1.79,8.03-2.69,12.05
				c0.11,12.24,0.34,24.48,0.64,36.72c0.25,10.32,0.55,20.65,0.85,30.97c88.39-7.75,176.53-20.96,265.27-22.46
				c16.58-0.28,91.88,2.43,92.31-26.97C338.99,420,299.97,385.89,291.5,378.72z"/>
			<path class="st5" d="M358.19,459.34c11.96,8.86,30.43,11.62,44.22,15.03c29.22,7.22,57.97,16.33,87.17,23.51
				c31.92,7.86,64.53,13.89,97.22,18.94c2.07-0.09,4.14-0.19,6.21-0.27c30.66-1.26,61.12-2.64,91.67-5.67
				c23.62-2.34,47.36-5.07,71.15-7.08c1.78-17.42,3.67-34.83,4.57-52.32c2.74-53.46,0.93-107.33,8.21-160.38
				c-0.39-0.04-0.79-0.1-1.18-0.13c-14.81-1.12-9.69,3.13-19.17,10.4c-6.23,4.78-10.82,5.41-17.98,9.04
				c-8.42,4.27-12.38,9.36-21.74,11.44c-9.07,2.01-19.73-0.2-29.1,0.3c-14.46,0.77-30.44,1.27-45.64-1.76
				c-15.97-3.19-33.37-13.81-48.52-20.16c-12.3-5.16-24.03-14-34.12-22.69c-2.86-4.23-9.19,0.43-13.35,3.05
				c-4.86,3.07-6.58,8.79-10.23,13.06c-4.31,5.04-13.95,15.1-21.75,15.12c-6.85,12.04-30.46,43.25-44.14,36.82
				c-5.27,5.66-11.38,11.04-12.35,18.77c-18.83-11.04-20.95,8.72-39.14,13.4c-23.02,5.93-50.56,12.14-57.7,41.2l-11.77-4.41
				C322.59,423,348.53,452.2,358.19,459.34z"/>
		</g>
		<g class="st6">
			<defs>
				<path id="SVGID_3_" class="st7" d="M-48.79,297.91c4.01-0.54,8.38-3.43,12.62-4c13.72-1.85,7.2-0.19,16.03,2.65
					c8.68,2.78,16.54,7.73,25.96,9.03c19.64,2.71,38.56,0.73,56.65,8.52c8.79,3.78,16.03,9.03,25.07,12.24
					c3.21,1.14,6.55-0.34,9.96,1.35c6.73,3.35,11.07,11.32,17.43,14.58c1.46-10.23,10.27-9.35,17.95-13.98
					c7.39,13.23,28.95-7.77,39.32-11.81c8.03,6.45,17.95,12.29,25.27,18.62c9.42,8.14,12.15,21.2,23.25,27.94
					c8.71,5.29,10.25,2.42,19.53,2.98c6.67,0.4,14.19,4.16,22.17,4.44c15.13,0.54,15.01-3.66,29.08,8.25
					c8.47,7.17,47.49,41.28,47.29,54.28c-0.43,29.4-75.74,26.69-92.31,26.97"/>
			</defs>
			<clipPath id="SVGID_4_">
				<use xlink:href="#SVGID_3_"  style="overflow:visible;"/>
			</clipPath>
			<path class="st8" d="M22.24,300.64c-2.82,12.75,5.69,18.79,14.92,26.96c8.49,7.53,16.41,22.48,26.16,26.81
				c7.64,3.39,17.98-0.06,26.42,1.6c7.83,1.54,16,6.52,15.73-3.49c-0.17-6.41-9.07-14.79-11.62-20.77
				c-4.2-9.88-7.28-16.8-14.59-24.87c-7.62-8.41-14.66-17.19-27-16.02c-8.67,0.82-20.97,6.32-26.78,13.02"/>
		</g>
		<g class="st0">
			<path class="st9" d="M151.95,249.84c-9.45,15.05,17.68,18.19,21.94,30c2.83,7.85-2.35,13.46,2.98,20.86
				c6.18,8.58,19.13,10.23,27.93,14.22c6.94,3.14,17.2,8.76,22.07,14.67c1.91,2.32-1.88,4.8-0.45,6.83
				c6.04,8.54,22.36,15.33,32.58,15.8c6.29,0.28,9.75-2.02,16.44-1.88c7.45,0.15,14.54,4.55,21.19,6.38
				c3.19-23.51-17.6-25.25-27.87-39.6c-4.73-6.61-0.56-5.95-1.36-13.29c-0.85-7.81-5.83-12.18-11.6-17.97
				c-19.14-19.19-40.54-43.04-70.07-41.42c-8.66,0.47-25.31,1.77-31.62,7.56"/>
		</g>
		<g class="st6">
			<path class="st3" d="M570.29,270.37c-16.62,19.53-2.58,25.43,13.71,39.34c14.24,12.16,25.45,33.12,42.35,40.76
				c12.24,5.53,35.86,12.44,48.93,10.75c4.68-0.6,8.53-3.69,13.66-3.37c9.09,0.57,15.93,8.13,24.09,10.67
				c9.43,2.93,21.31-1.26,31.12-3.87c5.09-1.35,5.07,1.57,9.7-4.57c5.53-7.33,2.75-14.52-0.01-22.51
				c-5.96-17.24-11.21-32.8-27.12-43.04c-27.14-17.47-67.5-19.22-99.04-25.57c-15.33-3.09-47.75-10.04-58.47,5.73"/>
		</g>
		<g class="st0">
			<path class="st10" d="M-13.15,530.27c8.49,1.71,17.02,3.16,25.6,4.4c22.89,2.85,45.92,4.21,68.98,4.56
				c18.28-1.71,36.79-1.9,55.05-0.82c54.46-2.16,108.74-7.5,163.2-9.63c31.59-1.24,63.2-0.77,94.8-1.83
				c33.11-1.11,66.19-3.01,99.26-4.99c33.08-1.98,66.15-4.04,99.26-5.4c30.66-1.26,61.12-2.64,91.67-5.67
				c23.62-2.34,47.36-5.07,71.15-7.08c1.78-17.42,3.67-34.83,4.57-52.32c1.2-23.33,1.53-46.74,2.12-70.12
				c-13.07,4.18-29.04,1.9-42.26,3.95c-12.78,1.98-33.31,3.39-44.4,1.55c-16.51-2.74-27.51-7.61-45.55-5
				c-9.27,1.34-10.56,3.47-20.5,6.95c-13.43,4.7-9.73-0.4-23.26,0.85c-15.81,1.46-32.26,12.02-49.9,9.63
				c-9.34-1.26-15.22-4.63-23.79-5.88c-8.67-1.27-17.77,0.83-26.47-0.11c-12.32-1.33-22.67-7.6-34.03-6.43
				c-10.21,1.05-15.38,8.29-24.05,10.03c-9.12,1.84-11.86-4.79-21.5,0.91c-4.37,2.58-5.84,8.02-8.64,12.25
				c-6.24,0.63-12.47,3.06-16.77,7.82c-6.89-6.21-21.32-4.97-28.75,1.09c-6.57-7.12-7.33,0.42-12.93-0.26
				c-5.32-0.64-6.46-8.9-12.28-1.69c-6.69-9.19-18.92-12.38-27.43-11.52c-2.59,0.26-5.62-0.11-8.76-0.74
				c-0.83-0.57-1.64-1.1-2.43-1.56c-8.27-4.75-10.83-4.55-16.57-5.1c-1.87-1.27-3.98-2.14-6.55-0.9c-0.51-0.09-1.03-0.19-1.58-0.3
				c-20.89-4.2-47.46-6.76-64.34-21.5c-14.51,16.22-29.71-9.37-41.46-16.1c-10.83-6.2-25.45-6.6-37.99-6.11
				c-13.84,0.54-25.92,3.87-38,4.64c-11.49,0.74-21.91-5.32-33.67-8.2c-0.2,1.15-0.39,2.31-0.58,3.47
				c-5.95-1.79-10.6-1.58-15.21-2.11c-11.12-8.92-22.89-15.16-34.25-23.15C0,365.46-20.21,400.37-19.7,438.6
				C-19.3,469.12-16.17,499.88-13.15,530.27z"/>
		</g>
	</g>
</g>
<g id="DESIGNED_BY_FREEPIK">
</g>
</svg>
